<?xml version="1.0" standalone="no"?>
<!DOCTYPE svg PUBLIC "-//W3C//DTD SVG 20010904//EN"
 "http://www.w3.org/TR/2001/REC-SVG-20010904/DTD/svg10.dtd">
<svg version="1.0" xmlns="http://www.w3.org/2000/svg"
 width="230.000000pt" height="165.000000pt" viewBox="0 0 230.000000 165.000000"
 preserveAspectRatio="xMidYMid meet">
<metadata>
Created by potrace 1.10, written by Peter Selinger 2001-2011
</metadata>
<g transform="translate(0.000000,165.000000) scale(0.050000,-0.050000)"
 stroke="none">
<path d="M2120 2840 c0 -80 0 -80 -79 -80 -76 0 -79 -2 -85 -74 -6 -70 -10
-74 -76 -75 -66 -1 -70 -5 -76 -75 -6 -69 -11 -74 -79 -80 -61 -5 -72 -14 -76
-56 -6 -81 11 -100 89 -100 l73 0 -8 80 -7 80 82 0 c80 0 82 1 82 70 0 68 2
70 80 70 l80 0 0 -1090 0 -1090 80 0 c80 0 80 0 80 80 0 80 0 80 80 80 80 0
80 0 80 80 l0 80 81 0 81 0 -11 70 -11 70 80 0 c80 0 80 0 80 80 0 80 0 80 80
80 80 0 80 0 80 80 0 80 0 80 80 80 80 0 80 0 80 80 0 80 0 80 80 80 80 0 80
0 80 80 0 80 0 80 79 80 76 0 79 2 85 75 6 70 10 75 71 73 62 -1 65 2 65 75 0
76 1 77 80 77 80 0 80 0 80 80 0 80 0 80 80 80 80 0 80 0 80 80 0 80 0 80 80
80 80 0 80 0 80 80 0 80 0 80 80 80 80 0 80 0 80 80 0 80 0 80 -80 80 -80 0
-80 0 -80 -80 0 -80 0 -80 -80 -80 -80 0 -80 0 -80 -80 0 -80 0 -80 -80 -80
-80 0 -80 0 -80 -80 0 -80 0 -80 -80 -80 -80 0 -80 0 -80 -80 0 -80 0 -80 -80
-80 -78 0 -80 -2 -80 -70 0 -67 -3 -70 -70 -70 -68 0 -70 -2 -70 -80 0 -80 0
-80 -80 -80 -80 0 -80 0 -80 -80 0 -80 0 -80 -80 -80 -80 0 -80 0 -80 -80 0
-80 0 -80 -80 -80 -80 0 -80 0 -80 -80 0 -80 0 -80 -80 -80 -78 0 -80 -2 -80
-70 0 -67 -3 -70 -70 -70 -68 0 -70 -2 -70 -80 0 -80 0 -80 -80 -80 l-80 0 0
1090 0 1090 -80 0 c-80 0 -80 0 -80 -80z"/>
<path d="M4460 2840 c0 -80 0 -80 -79 -80 -76 0 -79 -2 -85 -74 -6 -69 -10
-74 -75 -75 -71 -1 -75 -10 -63 -131 7 -66 142 -18 142 50 0 68 2 70 80 70
l80 0 0 -1090 0 -1090 70 0 70 0 0 1250 0 1250 -70 0 c-68 0 -70 -2 -70 -80z"/>
<path d="M1500 2220 c0 -80 0 -80 -80 -80 -80 0 -80 0 -80 -80 0 -80 0 -80
-80 -80 -80 0 -80 0 -80 -80 0 -80 0 -80 -80 -80 -78 0 -80 -2 -80 -69 0 -65
-4 -69 -75 -75 -71 -6 -75 -10 -81 -81 -6 -71 -10 -75 -75 -75 -67 0 -69 -2
-69 -80 0 -80 0 -80 -80 -80 -80 0 -80 0 -80 -80 0 -80 0 -80 -80 -80 -80 0
-80 0 -80 -80 0 -80 0 -80 -80 -80 -78 0 -80 -2 -80 -69 0 -65 -4 -69 -75 -75
-71 -6 -75 -10 -81 -81 -5 -59 -15 -75 -45 -75 -32 0 -39 -14 -39 -80 0 -70 6
-80 46 -80 40 0 46 10 46 75 -1 72 2 75 74 81 70 6 74 10 74 75 0 67 2 69 80
69 80 0 80 0 80 80 0 80 0 80 80 80 80 0 80 0 80 80 0 80 0 80 80 80 80 0 80
0 80 80 0 80 0 80 80 80 80 0 80 0 80 80 0 78 2 80 70 80 66 0 70 4 70 68 0
73 24 92 108 83 48 -5 52 0 52 72 0 77 0 77 80 77 80 0 80 0 80 80 0 80 0 80
80 80 80 0 80 0 80 80 0 80 0 80 80 80 80 0 80 0 80 80 0 80 0 80 -80 80 -80
0 -80 0 -80 -80z"/>
</g>
</svg>
