<?xml version="1.0" standalone="no"?>
<!DOCTYPE svg PUBLIC "-//W3C//DTD SVG 20010904//EN"
 "http://www.w3.org/TR/2001/REC-SVG-20010904/DTD/svg10.dtd">
<svg version="1.0" xmlns="http://www.w3.org/2000/svg"
 width="230.000000pt" height="165.000000pt" viewBox="0 0 230.000000 165.000000"
 preserveAspectRatio="xMidYMid meet">
<metadata>
Created by potrace 1.10, written by Peter Selinger 2001-2011
</metadata>
<g transform="translate(0.000000,165.000000) scale(0.100000,-0.100000)"
 stroke="none">
<path d="M920 1490 l0 -40 -80 0 -80 0 0 -40 c0 -40 0 -40 -40 -40 -40 0 -40
0 -40 -40 0 -40 0 -40 -40 -40 l-40 0 0 -74 0 -75 -36 -3 -36 -3 2 -232 1
-233 -41 0 -40 0 0 -80 0 -80 -40 0 c-40 0 -40 0 -40 -40 l0 -40 -80 0 -80 0
0 -35 0 -35 -105 0 -105 0 0 -40 0 -40 105 0 105 0 0 35 0 35 80 0 80 0 0 40
c0 40 0 40 40 40 40 0 40 0 40 40 0 40 0 40 40 40 l40 0 0 80 0 80 38 0 37 0
-2 224 c-3 243 -1 254 52 244 25 -5 25 -5 25 73 l0 79 40 0 c40 0 40 0 40 40
l0 40 80 0 80 0 0 40 0 40 233 -2 232 -3 -1 -37 -1 -38 79 0 78 0 0 -40 c0
-40 0 -40 40 -40 l40 0 0 -77 0 -78 37 0 38 1 3 77 3 77 -41 0 -40 0 0 40 c0
40 0 40 -40 40 -40 0 -40 0 -40 40 l0 40 -75 0 -75 0 0 40 0 40 -235 0 -235 0
0 -40z"/>
<path d="M1700 905 l0 -235 40 0 40 0 0 -80 0 -80 35 0 c34 0 35 -1 35 -40 0
-40 0 -40 40 -40 40 0 40 0 40 -40 l0 -40 80 0 80 0 0 -35 0 -35 105 0 105 0
0 40 0 40 -105 0 -105 0 0 35 0 35 -80 0 -80 0 0 39 c0 39 -1 40 -37 43 l-38
3 -2 75 -1 75 -36 3 -36 3 0 235 0 234 -40 0 -40 0 0 -235z"/>
</g>
</svg>
