<?xml version="1.0" standalone="no"?>
<!DOCTYPE svg PUBLIC "-//W3C//DTD SVG 20010904//EN"
 "http://www.w3.org/TR/2001/REC-SVG-20010904/DTD/svg10.dtd">
<svg version="1.0" xmlns="http://www.w3.org/2000/svg"
 width="230.000000pt" height="165.000000pt" viewBox="0 0 230.000000 165.000000"
 preserveAspectRatio="xMidYMid meet">
<metadata>
Created by potrace 1.10, written by Peter Selinger 2001-2011
</metadata>
<g transform="translate(0.000000,165.000000) scale(0.100000,-0.100000)"
 stroke="none">
<path d="M1100 1450 c0 -40 0 -40 -40 -40 -40 0 -40 0 -40 -40 0 -40 0 -40
-40 -40 -39 0 -40 -1 -40 -34 0 -33 -2 -35 -37 -38 -36 -3 -38 -5 -41 -40 -3
-35 -5 -37 -40 -40 -38 -3 -39 -5 -33 -65 1 -8 15 -13 36 -13 34 0 35 1 35 40
0 40 0 40 40 40 39 0 40 1 40 35 0 34 1 35 40 35 40 0 40 0 40 40 0 40 0 40
40 40 40 0 40 0 40 40 0 40 0 40 40 40 40 0 40 0 40 -40 0 -39 1 -40 34 -40
33 0 35 -2 38 -37 3 -36 5 -38 41 -41 35 -3 37 -5 37 -38 0 -33 1 -34 40 -34
40 0 40 0 40 -40 0 -40 0 -40 40 -40 40 0 40 0 40 -40 0 -40 0 -40 40 -40 40
0 40 0 40 -40 0 -39 1 -40 34 -40 33 0 35 -2 38 -37 3 -36 5 -38 41 -41 l37
-3 0 40 c0 40 -1 41 -35 41 -34 0 -35 1 -35 40 0 40 0 40 -40 40 -40 0 -40 0
-40 40 0 40 0 40 -40 40 -40 0 -40 0 -40 40 0 40 0 40 -40 40 -40 0 -40 0 -40
40 0 40 0 40 -40 40 -39 0 -40 1 -40 34 0 33 -2 35 -37 38 -37 3 -38 4 -37 41
1 36 0 37 -38 37 -38 0 -38 0 -38 40 0 40 0 40 -40 40 -40 0 -40 0 -40 -40z"/>
<path d="M710 1060 c0 -40 0 -40 -40 -40 -40 0 -40 0 -40 -40 0 -40 0 -40 -39
-40 -39 0 -40 -1 -43 -37 -3 -36 -5 -38 -38 -38 -34 0 -35 -1 -35 -37 0 -21 3
-38 8 -38 4 0 21 0 37 0 28 0 30 3 30 35 0 34 1 35 40 35 40 0 40 0 40 40 0
40 0 40 40 40 40 0 40 0 40 40 0 40 0 40 40 40 40 0 40 0 40 40 0 40 0 40 -40
40 -40 0 -40 0 -40 -40z"/>
<path d="M1723 854 c-2 -7 -3 -25 -1 -41 3 -26 6 -28 41 -25 l37 4 0 -41 0
-41 40 0 c40 0 40 0 40 -40 0 -40 0 -40 40 -40 40 0 40 0 40 -40 l0 -40 40 0
41 0 -3 -37 c-3 -37 -2 -38 34 -41 35 -3 37 -5 40 -40 3 -35 5 -37 38 -37 33
0 35 2 38 37 3 36 2 37 -35 40 -36 3 -38 5 -41 41 -3 35 -5 37 -38 37 -33 0
-34 1 -34 40 0 40 0 40 -40 40 -40 0 -40 0 -40 40 0 40 0 40 -40 40 -40 0 -40
0 -40 40 0 40 0 40 -40 40 -40 0 -40 0 -40 38 0 36 -1 37 -36 37 -20 1 -38 -5
-41 -11z"/>
<path d="M397 783 c-4 -3 -7 -21 -7 -40 0 -31 -2 -33 -35 -33 -34 0 -35 -1
-35 -40 0 -40 0 -40 -40 -40 -40 0 -40 0 -40 -40 0 -40 0 -40 -40 -40 -40 0
-40 0 -40 -40 0 -40 0 -40 -40 -40 -39 0 -40 -1 -40 -34 0 -33 -2 -35 -37 -38
-37 -3 -38 -5 -41 -43 l-3 -41 41 4 c38 4 40 6 40 38 0 35 9 40 63 35 14 -2
17 6 17 38 l0 41 40 0 c40 0 40 0 40 40 0 40 0 40 40 40 40 0 40 0 40 40 0 40
0 40 40 40 40 0 40 0 40 40 0 39 1 40 35 40 34 0 35 1 35 40 0 39 -1 40 -33
40 -19 0 -37 -3 -40 -7z"/>
<path d="M2190 360 c0 -40 0 -40 40 -40 40 0 40 0 40 -40 0 -29 4 -40 15 -40
11 0 15 11 15 40 0 29 -4 40 -15 40 -11 0 -15 11 -15 40 0 40 0 40 -40 40 -40
0 -40 0 -40 -40z"/>
</g>
</svg>
